# xmcd CD database file
#
# Track frame offsets:
#	151
#	21836
#	43810
#	64975
#	86680
#	112919
#	144252
#	166819
#	191139
#	212691
#	235516
#	261550
#	287716
#
# Disc length: 4168 seconds
#
# Revision: 0
# Processed by: cddbd v1.4PL0 Copyright (c) Steve Scherf et al.
# Submitted via: CDex 1.50beta10
#
DISCID=ba10460d
DTITLE=Various Artist - Jazz Club Sunset Soli
DYEAR=1900
DGENRE=Jazz
TTITLE0=Henri Texier Azur Quartet - Laguna veneta
TTITLE1=Eddy Louiss - Sentimental feeling
TTITLE2=Didier Lockwood - Back to Big Apple
TTITLE3=Philip Catherine - Merci Afrique
TTITLE4=Bireli Lagrene - Daphné
TTITLE5=JeanMarie Ecay - Bras dessus
TTITLE6=Marc Berthoumieux - Victoria
TTITLE7=Jean-Pierre Como - My moutains
TTITLE8=Eric Le Lann - T.G.V.
TTITLE9=Stéphane Huchard - Jakawa Jungle Spoon
TTITLE10=Laurent de Wilde - Shuffle Boil
TTITLE11=Julien Lourau Groove Gang - City boom boom
TTITLE12=Mukta - NGC
EXTD=
EXTT0=
EXTT1=
EXTT2=
EXTT3=
EXTT4=
EXTT5=
EXTT6=
EXTT7=
EXTT8=
EXTT9=
EXTT10=
EXTT11=
EXTT12=
PLAYORDER=
